<?xml version="1.0" encoding="UTF-8" standalone="no"?> <!-- Created with Vectornator for iOS (http://vectornator.io/) --><!DOCTYPE svg PUBLIC "-//W3C//DTD SVG 1.1//EN" "http://www.w3.org/Graphics/SVG/1.1/DTD/svg11.dtd">
<svg style="fill-rule:evenodd;clip-rule:evenodd;stroke-linecap:round;stroke-linejoin:round;" xmlns:vectornator="http://vectornator.io" xmlns:xlink="http://www.w3.org/1999/xlink" xmlns="http://www.w3.org/2000/svg" xml:space="preserve" version="1.1" viewBox="0 0 380 163">
<metadata>
<vectornator:setting key="RulersVisible" value="1"/>
<vectornator:setting key="Units" value="Points"/>
<vectornator:setting key="DynamicGuides" value="1"/>
<vectornator:setting key="GuidesVisible" value="1"/>
<vectornator:setting key="CMYKEnabledKey" value="0"/>
<vectornator:setting key="SnapToGuides" value="1"/>
<vectornator:setting key="GridSpacing" value="36"/>
</metadata>
<defs/>
<g id="Layer 1" vectornator:layerName="Layer 1">
<path d="M106.289+59.9219C96.3051+59.9219+88.2101+51.8269+88.2101+41.8419C88.2101+31.8579+96.3051+23.7629+106.289+23.7629C116.274+23.7629+124.368+31.8579+124.368+41.8419C124.368+51.8269+116.274+59.9219+106.289+59.9219M106.32+14.8619C91.5091+14.8619+79.5021+26.8689+79.5021+41.6799C79.5021+56.4909+91.5091+68.4979+106.32+68.4979C121.132+68.4979+133.139+56.4909+133.139+41.6799C133.139+26.8689+121.132+14.8619+106.32+14.8619" opacity="1" fill="#ffffff"/>
<path d="M72.5322+68.5098L28.1632+68.5098C27.4652+68.5098+26.8172+68.3848+26.2192+68.1348C25.6192+67.8868+25.1022+67.5428+24.6662+67.1068C24.2282+66.6708+23.8862+66.1528+23.6362+65.5538C23.3872+64.9558+23.2622+64.3078+23.2622+63.6088L23.2622+14.8638L32.9902+14.8638L32.9902+58.7828L72.5322+58.7828L72.5322+68.5098Z" opacity="1" fill="#ffffff"/>
<path d="M239.424+41.6807C239.424+38.9607+239.044+36.6477+238.282+34.7397C237.523+32.8307+236.556+31.2407+235.383+29.9687C234.21+28.6967+232.926+27.6987+231.528+26.9747C230.132+26.2507+228.804+25.7147+227.544+25.3657C226.283+25.0167+225.174+24.7987+224.213+24.7107C223.254+24.6237+222.622+24.5797+222.323+24.5797L205.224+24.5797L205.224+45.6097L239.424+45.6097L239.424+41.6807ZM195.494+19.7527C195.494+19.0787+195.62+18.4437+195.869+17.8447C196.118+17.2447+196.468+16.7217+196.916+16.2727C197.365+15.8237+197.89+15.4747+198.488+15.2257C199.087+14.9757+199.723+14.8507+200.397+14.8507L222.323+14.8507C226.191+14.8507+229.758+15.5117+233.026+16.8337C236.294+18.1567+239.125+20.0027+241.519+22.3717C243.914+24.7427+245.785+27.5737+247.132+30.8667C248.48+34.1597+249.153+37.7637+249.153+41.6807L249.153+68.5097L239.424+68.5097L239.424+55.3377L205.224+55.3377L205.224+68.5097L195.494+68.5097L195.494+19.7527Z" opacity="1" fill="#ffffff"/>
<path d="M152.926+68.51L142.963+68.51L142.963+14.863L152.926+14.863L152.926+68.51Z" opacity="1" fill="#ffffff"/>
<path d="M188.94+68.5098L174.767+68.5098L152.876+46.2838L152.876+37.0878L174.767+14.8628L188.94+14.8628L161.369+41.6868L188.94+68.5098Z" opacity="1" fill="#ffffff"/>
<path d="M75.0713+75.0078L49.9793+126.113C49.5853+126.902+49.0013+127.536+48.2243+128.017C47.4483+128.497+46.5923+128.737+45.6563+128.737C44.7443+128.737+43.9013+128.497+43.1253+128.017C42.3483+127.536+41.7513+126.902+41.3323+126.113L16.2783+75.0078L27.0323+75.0078L45.6563+113.18L64.3543+75.0078L75.0713+75.0078Z" opacity="1" fill="#d8a968"/>
<path d="M88.0303+105.807L122.275+105.807L122.275+84.7486L105.153+84.7486C104.853+84.7486+104.221+84.7926+103.26+84.8806C102.299+84.9686+101.187+85.1866+99.9263+85.5356C98.6653+85.8856+97.3343+86.4226+95.9363+87.1476C94.5373+87.8716+93.2513+88.8706+92.0763+90.1446C90.9023+91.4186+89.9343+93.0106+89.1733+94.9216C88.4113+96.8326+88.0303+99.1496+88.0303+101.872L88.0303+105.807ZM132.017+128.737L122.275+128.737L122.275+115.548L88.0303+115.548L88.0303+128.737L78.2883+128.737L78.2883+101.872C78.2883+97.9516+78.9633+94.3406+80.3123+91.0436C81.6603+87.7466+83.5343+84.9116+85.9323+82.5386C88.3303+80.1656+91.1653+78.3176+94.4373+76.9936C97.7103+75.6696+101.281+75.0076+105.153+75.0076L127.109+75.0076C127.784+75.0076+128.421+75.1326+129.02+75.3826C129.619+75.6326+130.144+75.9816+130.593+76.4316C131.043+76.8806+131.392+77.4056+131.642+78.0056C131.891+78.6046+132.017+79.2416+132.017+79.9156L132.017+128.737Z" opacity="1" fill="#d8a968"/>
<path d="M192.308+128.736L147.87+128.736C147.171+128.736+146.523+128.612+145.923+128.362C145.323+128.112+144.805+127.768+144.368+127.332C143.931+126.894+143.587+126.376+143.337+125.776C143.087+125.177+142.963+124.528+142.963+123.828L142.963+75.0073L152.705+75.0073L152.705+118.995L192.308+118.995L192.308+128.736Z" opacity="1" fill="#d8a968"/>
<path d="M249.239+123.828C249.239+124.528+249.114+125.178+248.864+125.776C248.614+126.376+248.264+126.894+247.815+127.332C247.366+127.768+246.841+128.112+246.242+128.362C245.642+128.612+245.006+128.736+244.331+128.736L222.374+128.736C220.301+128.736+218.203+128.512+216.08+128.062C213.957+127.612+211.902+126.919+209.916+125.982C207.93+125.046+206.063+123.853+204.314+122.404C202.566+120.956+201.037+119.238+199.725+117.253C198.413+115.267+197.384+112.994+196.634+110.433C195.885+107.873+195.51+105.019+195.51+101.872L195.51+75.0081L205.252+75.0081L205.252+101.872C205.252+104.62+205.633+106.943+206.394+108.841C207.156+110.74+208.124+112.326+209.299+113.599C210.472+114.874+211.759+115.873+213.158+116.597C214.555+117.321+215.886+117.858+217.148+118.208C218.409+118.558+219.52+118.776+220.482+118.864C221.443+118.952+222.074+118.995+222.374+118.995L239.497+118.995L239.497+75.0081L249.239+75.0081L249.239+123.828Z" opacity="1" fill="#d8a968"/>
<path d="M339.112+111.312C339.754+111.284+340.394+111.247+341.033+111.2C342.468+111.093+343.896+110.926+345.311+110.701C346.727+110.487+348.132+110.214+349.521+109.883C352.302+109.233+355.027+108.365+357.674+107.292C358.998+106.753+360.299+106.161+361.582+105.522C362.378+105.126+363.164+104.707+363.94+104.268C363.453+103.439+362.97+102.608+362.499+101.769C362.243+101.325+361.996+100.877+361.748+100.429C362.711+99.7395+363.564+99.0945+364.298+98.5225C364.632+99.0555+364.964+99.5895+365.287+100.13C365.974+101.25+366.644+102.378+367.304+103.515C367.488+103.833+367.673+104.15+367.856+104.468C367.39+104.753+366.921+105.03+366.447+105.299C365.143+106.042+363.814+106.727+362.464+107.353C361.113+107.981+359.737+108.542+358.344+109.043C355.561+110.048+352.704+110.803+349.811+111.306C348.365+111.556+346.91+111.745+345.451+111.873C343.99+111.992+342.527+112.049+341.063+112.048C339.605+112.05+338.146+111.97+336.693+111.837C337.508+111.683+338.315+111.507+339.112+111.312" opacity="1" fill="#d8a968"/>
<path d="M361.811+104.02C357.046+106.412+351.959+108.021+346.744+108.817C352.182+106.604+356.91+103.773+360.461+101.332C360.912+102.228+361.361+103.124+361.811+104.02" opacity="1" fill="#d8a968"/>
<path d="M361.053+99.4092C359.91+100.365+358.727+101.262+357.512+102.107C355.083+103.799+352.519+105.267+349.856+106.503C348.522+107.117+347.165+107.676+345.789+108.178C344.409+108.67+343.011+109.105+341.597+109.482C340.189+109.863+338.759+110.162+337.322+110.411C338.068+110.051+338.802+109.673+339.522+109.277C340.134+109.084+340.743+108.882+341.348+108.672C342.707+108.196+344.042+107.666+345.351+107.082C346.663+106.508+347.949+105.881+349.207+105.203C351.725+103.853+354.132+102.31+356.41+100.589C357.55+99.7272+358.655+98.8172+359.728+97.8682C360.393+97.2792+361.044+96.6722+361.681+96.0482C360.995+95.3732+360.315+94.6932+359.642+94.0072C359.281+93.6432+358.925+93.2742+358.57+92.9062C359.321+91.9902+359.979+91.1472+360.538+90.4052C360.999+90.8342+361.458+91.2632+361.91+91.7012C362.864+92.6042+363.804+93.5222+364.735+94.4492C364.995+94.7082+365.255+94.9682+365.515+95.2262C365.139+95.6222+364.756+96.0122+364.369+96.3942C363.302+97.4492+362.196+98.4552+361.053+99.4092" opacity="1" fill="#d8a968"/>
<path d="M357.634+92.1016C356.778+93.3206+355.866+94.4936+354.911+95.6236C353.004+97.8866+350.906+99.9686+348.654+101.852C347.525+102.79+346.36+103.681+345.159+104.522C343.954+105.355+342.716+106.137+341.448+106.868C340.187+107.599+338.882+108.258+337.558+108.871C338.186+108.33+338.798+107.774+339.391+107.206C339.932+106.861+340.468+106.508+340.997+106.149C342.187+105.337+343.34+104.479+344.452+103.578C345.571+102.683+346.653+101.745+347.691+100.764C349.774+98.8086+351.699+96.6956+353.455+94.4426C354.333+93.3156+355.163+92.1506+355.954+90.9556C356.446+90.2146+356.917+89.4596+357.37+88.6916C356.533+88.2166+355.699+87.7376+354.872+87.2476C354.429+86.9916+353.99+86.7266+353.552+86.4616C354.04+85.3836+354.458+84.3996+354.807+83.5376C355.363+83.8316+355.917+84.1276+356.467+84.4336C357.622+85.0596+358.767+85.7036+359.906+86.3576C360.225+86.5396+360.543+86.7226+360.862+86.9066C360.6+87.3856+360.332+87.8606+360.057+88.3306C359.299+89.6256+358.49+90.8836+357.634+92.1016" opacity="1" fill="#d8a968"/>
<path d="M344.752+101.229C348.355+96.5925+351.034+91.7775+352.889+87.8875C353.727+88.4385+354.565+88.9895+355.401+89.5405C352.472+93.9945+348.871+97.9315+344.752+101.229" opacity="1" fill="#d8a968"/>
<path d="M352.44+85.9277C351.929+87.3257+351.351+88.6957+350.722+90.0337C349.465+92.7137+347.978+95.2677+346.29+97.6687C345.442+98.8677+344.546+100.031+343.606+101.153C342.657+102.27+341.664+103.346+340.627+104.379C339.598+105.413+338.509+106.386+337.388+107.321C337.855+106.635+338.302+105.942+338.728+105.24C339.161+104.765+339.587+104.285+340.006+103.802C340.946+102.71+341.836+101.583+342.678+100.423C343.528+99.2697+344.329+98.0837+345.079+96.8677C346.584+94.4407+347.897+91.9007+349.009+89.2697C349.566+87.9537+350.066+86.6137+350.522+85.2547C350.803+84.4117+351.064+83.5607+351.303+82.7017C350.372+82.4597+349.443+82.2127+348.517+81.9527C348.022+81.8207+347.529+81.6807+347.037+81.5387C347.23+80.3697+347.378+79.3097+347.493+78.3857C348.106+78.5277+348.718+78.6697+349.329+78.8237C350.606+79.1287+351.878+79.4527+353.149+79.7897C353.503+79.8847+353.859+79.9797+354.213+80.0737C354.085+80.6047+353.949+81.1327+353.804+81.6577C353.408+83.1057+352.952+84.5297+352.44+85.9277" opacity="1" fill="#d8a968"/>
<path d="M346.022+75.1953C345.655+75.1953+345.287+75.1963+344.92+75.1973C343.606+75.2003+342.293+75.2163+340.98+75.2513C339.667+75.2723+338.356+75.3363+337.043+75.3783C335.731+75.4423+334.419+75.4923+333.109+75.5713C332.454+75.6083+331.798+75.6453+331.142+75.6813C330.77+75.7063+330.397+75.7293+330.025+75.7533C329.742+75.7713+329.46+75.7903+329.176+75.8073C328.824+75.8293+328.471+75.8513+328.12+75.8733C328.106+75.8803+328.092+75.8833+328.079+75.8883L328.077+75.8903C328.098+76.2513+328.113+76.6113+328.123+76.9713C328.152+78.0673+328.13+79.1613+328.061+80.2493C327.997+81.3373+327.882+82.4213+327.72+83.4963C327.4+85.6473+326.903+87.7693+326.227+89.8423C325.893+90.8803+325.511+91.9053+325.082+92.9133C324.663+93.9253+324.197+94.9233+323.684+95.9003C323.167+96.8763+322.624+97.8443+322.027+98.7883C321.428+99.7293+320.798+100.661+320.124+101.571C320.929+100.774+321.695+99.9393+322.408+99.0613C322.526+98.9163+322.758+98.6203+322.758+98.6203L322.973+98.3483C322.973+98.3483+323.739+97.3323+324.098+96.8063C324.206+96.6493+324.314+96.4933+324.418+96.3343C325.04+95.3903+325.619+94.4193+326.154+93.4223C326.679+92.4203+327.161+91.3943+327.595+90.3473C328.459+88.2503+329.126+86.0643+329.575+83.8213C329.798+82.6993+329.971+81.5633+330.092+80.4183C330.168+79.6713+330.222+78.9203+330.253+78.1663C330.556+78.1793+330.859+78.1953+331.163+78.2103C331.818+78.2353+332.474+78.2613+333.13+78.2893C334.442+78.3463+335.754+78.3763+337.068+78.4203C338.379+78.4413+339.692+78.4843+341.006+78.4853C341.967+78.4963+342.928+78.4943+343.891+78.4863C343.882+79.3783+343.851+80.2683+343.796+81.1553C343.709+82.5853+343.572+84.0093+343.376+85.4243C342.981+88.2543+342.371+91.0473+341.545+93.7813C341.135+95.1493+340.668+96.5033+340.147+97.8363C339.633+99.1743+339.065+100.494+338.44+101.791C337.812+103.086+337.149+104.371+336.422+105.627C335.695+106.882+334.927+108.123+334.108+109.338C335.065+108.227+335.972+107.075+336.815+105.879C337.658+104.682+338.46+103.457+339.19+102.187C339.922+100.922+340.604+99.6253+341.232+98.3003C341.849+96.9733+342.414+95.6193+342.922+94.2413C343.931+91.4853+344.707+88.6333+345.228+85.7193C345.489+84.2623+345.692+82.7923+345.824+81.3083C345.957+79.8253+346.028+78.3323+346.038+76.8313C346.041+76.2863+346.036+75.7413+346.022+75.1953" opacity="1" fill="#d8a968"/>
<path d="M364.697+104.064C364.144+104.892+363.338+105.553+362.275+105.89C362.219+105.916+362.172+105.95+362.115+105.973C361.525+106.39+360.809+106.679+359.967+106.79C357.407+115.371+349.465+121.518+340.247+121.518C328.879+121.518+319.63+112.269+319.63+100.901C319.63+93.5805+323.501+86.9225+329.664+83.2325C329.594+82.5255+329.651+81.8055+329.834+81.1235C329.824+80.8805+329.817+80.6385+329.836+80.3965C329.815+79.8865+329.866+79.3775+329.974+78.8805C329.711+78.1515+329.602+77.3595+329.646+76.5775C329.099+76.4195+328.61+76.1905+328.193+75.8845C328.187+75.8845+328.183+75.8825+328.177+75.8815C328.135+75.8925+328.096+75.9085+328.047+75.9085L328.046+75.9085C318.514+80.5625+312.412+90.2125+312.412+100.901C312.412+116.249+324.899+128.736+340.247+128.736C354.214+128.736+366.083+118.303+367.856+104.469L364.697+104.064Z" opacity="1" fill="#d8a968"/>
<path d="M256.031+75L256.031+80.5C263.211+81.907+270.383+83.3107+277.562+84.7188L277.562+128.75L287.125+128.75L287.125+84.7188L308.656+80.5L308.656+75L256.031+75Z" opacity="1" fill="#d8a968"/>
</g>
</svg>
